<svg preserveAspectRatio="none" width="100%" height="100%" overflow="visible" style="display: block;" viewBox="0 0 600 520" fill="none" xmlns="http://www.w3.org/2000/svg">
<g id="Group 2085664388">
<path id="Ellipse 35" d="M492.812 441.991C498.601 447.455 507.564 447.869 513.545 442.615C542.073 417.558 564.471 387.707 579.326 354.848C595.981 318.006 602.714 278.355 599.012 238.916C595.31 199.478 581.27 161.291 557.961 127.267C537.147 96.8827 509.431 70.5331 476.549 49.79C469.758 45.5061 460.891 47.3656 456.046 53.7684L416.297 106.301C410.464 114.01 412.788 125.049 420.705 130.596C438.39 142.986 453.434 158.029 465.095 175.051C480.013 196.827 488.998 221.266 491.368 246.506C493.737 271.747 489.428 297.124 478.768 320.703C470.516 338.957 458.626 355.762 443.689 370.368C436.727 377.176 436.194 388.55 443.275 395.234L492.812 441.991Z" fill="var(--fill-0, #FFA500)" fill-opacity="0.06"/>
<path id="Ellipse 37" d="M475.374 454.54C480.72 460.469 489.65 461.589 496.042 456.807C530.485 431.037 557.765 398.774 575.741 362.425C595.647 322.172 603.499 278.214 598.568 234.628C593.637 191.043 576.083 149.244 547.534 113.109C521.752 80.4757 487.759 53.4174 448.192 33.936C440.902 30.3465 432.176 33.225 428.084 40.2454L417.252 58.8291C412.436 67.0924 415.924 77.6709 424.392 82.1183C453.555 97.4363 478.681 118 498.027 142.487C520.866 171.395 534.91 204.835 538.855 239.703C542.799 274.571 536.518 309.738 520.592 341.94C507.224 368.972 487.423 393.181 462.565 413.017C454.972 419.076 453.563 430.345 460.068 437.561L475.374 454.54Z" fill="var(--fill-0, white)" fill-opacity="0.2"/>
</g>
</svg>
